<?xml version="1.0" encoding="utf-8" standalone="no"?>
<!DOCTYPE svg PUBLIC "-//W3C//DTD SVG 1.1//EN" "http://www.w3.org/Graphics/SVG/1.1/DTD/svg11.dtd">

<svg width="210mm" height="297mm" viewBox="0 0 210 297" xmlns="http://www.w3.org/2000/svg" xmlns:xlink="http://www.w3.org/1999/xlink" version="1.1" style="stroke:black; fill:none; stroke-width:0.5pt; stroke-linejoin:round; text-anchor:middle" font-family="Helvetica, Arial, FreeSans, Sans, sans, sans-serif">

<g>

<path d="M50.550000000000004,118.25 A6.05,6.05 0,0,1 56.6,112.2 A6.05,6.05 0,0,1 62.650000000000006,118.25 L62.650000000000006,124.3 L56.6,124.3 A6.05,6.05 0,0,1 50.550000000000004,118.25 " fill="black" stroke="none" />

<path d="M50.550000000000004,142.45000000000002 A6.05,6.05 0,0,1 56.6,136.4 L62.650000000000006,136.4 L62.650000000000006,142.45000000000002 L62.650000000000006,148.5 L56.6,148.5 A6.05,6.05 0,0,1 50.550000000000004,142.45000000000002 " fill="black" stroke="none" />

<path d="M50.550000000000004,166.65 A6.05,6.05 0,0,1 56.6,160.6 L62.650000000000006,160.6 L62.650000000000006,166.65 L62.650000000000006,172.7 L56.6,172.7 A6.05,6.05 0,0,1 50.550000000000004,166.65 " fill="black" stroke="none" />

<rect x="62.650000000000006" y="124.3" width="12.1" height="12.1" fill="black" stroke="none" />

<rect x="62.650000000000006" y="148.5" width="12.1" height="12.1" fill="black" stroke="none" />

<path d="M62.650000000000006,178.75 L62.650000000000006,172.7 L68.7,172.7 L74.75,172.7 L74.75,178.75 A6.05,6.05 0,0,1 68.7,184.79999999999998 A6.05,6.05 0,0,1 62.650000000000006,178.75 " fill="black" stroke="none" />

<path d="M74.75,118.25 A6.05,6.05 0,0,1 80.8,112.2 A6.05,6.05 0,0,1 86.85,118.25 L86.85,124.3 L80.8,124.3 L74.75,124.3 L74.75,118.25 " fill="black" stroke="none" />

<rect x="74.75" y="136.4" width="12.1" height="12.1" fill="black" stroke="none" />

<rect x="74.75" y="160.6" width="12.1" height="12.1" fill="black" stroke="none" />

<rect x="86.85" y="124.3" width="12.1" height="12.1" fill="black" stroke="none" />

<rect x="86.85" y="148.5" width="12.1" height="12.1" fill="black" stroke="none" />

<path d="M86.85,178.75 L86.85,172.7 L92.89999999999999,172.7 L98.94999999999999,172.7 L98.94999999999999,178.75 A6.05,6.05 0,0,1 92.89999999999999,184.79999999999998 A6.05,6.05 0,0,1 86.85,178.75 " fill="black" stroke="none" />

<path d="M98.95,118.25 A6.05,6.05 0,0,1 105.0,112.2 A6.05,6.05 0,0,1 111.05,118.25 L111.05,124.3 L105.0,124.3 L98.95,124.3 L98.95,118.25 " fill="black" stroke="none" />

<rect x="98.95" y="136.4" width="12.1" height="12.1" fill="black" stroke="none" />

<rect x="98.95" y="160.6" width="12.1" height="12.1" fill="black" stroke="none" />

<rect x="111.05000000000001" y="124.3" width="12.1" height="12.1" fill="black" stroke="none" />

<rect x="111.05000000000001" y="148.5" width="12.1" height="12.1" fill="black" stroke="none" />

<path d="M111.05000000000001,178.75 L111.05000000000001,172.7 L117.10000000000001,172.7 L123.15,172.7 L123.15,178.75 A6.05,6.05 0,0,1 117.10000000000001,184.79999999999998 A6.05,6.05 0,0,1 111.05000000000001,178.75 " fill="black" stroke="none" />

<path d="M123.15,118.25 A6.05,6.05 0,0,1 129.20000000000002,112.2 A6.05,6.05 0,0,1 135.25,118.25 L135.25,124.3 L129.20000000000002,124.3 L123.15,124.3 L123.15,118.25 " fill="black" stroke="none" />

<rect x="123.15" y="136.4" width="12.1" height="12.1" fill="black" stroke="none" />

<rect x="123.15" y="160.6" width="12.1" height="12.1" fill="black" stroke="none" />

<rect x="135.25" y="124.3" width="12.1" height="12.1" fill="black" stroke="none" />

<rect x="135.25" y="148.5" width="12.1" height="12.1" fill="black" stroke="none" />

<path d="M135.25,178.75 L135.25,172.7 L141.3,172.7 L147.35,172.7 L147.35,178.75 A6.05,6.05 0,0,1 141.3,184.79999999999998 A6.05,6.05 0,0,1 135.25,178.75 " fill="black" stroke="none" />

<path d="M147.35,118.25 A6.05,6.05 0,0,1 153.4,112.2 A6.05,6.05 0,0,1 159.45,118.25 A6.05,6.05 0,0,1 153.4,124.3 L147.35,124.3 L147.35,118.25 " fill="black" stroke="none" />

<path d="M147.35,142.45000000000002 L147.35,136.4 L153.4,136.4 A6.05,6.05 0,0,1 159.45,142.45000000000002 A6.05,6.05 0,0,1 153.4,148.5 L147.35,148.5 L147.35,142.45000000000002 " fill="black" stroke="none" />

<path d="M147.35,166.65 L147.35,160.6 L153.4,160.6 A6.05,6.05 0,0,1 159.45,166.65 A6.05,6.05 0,0,1 153.4,172.7 L147.35,172.7 L147.35,166.65 " fill="black" stroke="none" />

<circle cx="117.10000000000001" cy="154.54999999999998" r="2.057" fill="white" stroke="none" />

<circle cx="105.0" cy="142.45" r="2.057" fill="white" stroke="none" />

<circle cx="105.0" cy="154.54999999999998" r="2.057" fill="black" stroke="none" />

</g>

</svg>

